<svg width="48" height="48" viewBox="0 0 48 48" fill="none" xmlns="http://www.w3.org/2000/svg">
<rect width="48" height="48" rx="6" fill="black"/>
<rect x="24" y="5.29289" width="26.4558" height="26.4558" transform="rotate(45 24 5.29289)" fill="#FFFFDF" stroke="#FFFFDF"/>
<mask id="mask0_1107_3037" style="mask-type:alpha" maskUnits="userSpaceOnUse" x="6" y="6" width="36" height="36">
<rect x="24" y="6" width="25.4558" height="25.4558" transform="rotate(45 24 6)" fill="#FFFFDF"/>
</mask>
<g mask="url(#mask0_1107_3037)">
<path d="M13.1973 28.6259C14.1485 30.291 18.4756 31.5581 23.7158 31.6024L24 31.6034C29.3605 31.6034 33.8226 30.3236 34.7988 28.6317L29.9404 42.6923H18.0596L13.1973 28.6259ZM34.4209 27.4979C34.5056 27.6545 34.5449 27.8013 34.5449 27.9374C34.5448 28.2442 34.358 28.6091 33.8535 29.0067C33.3539 29.4003 32.6023 29.7747 31.6338 30.0975C29.701 30.7417 27.0019 31.1483 24 31.1483C20.9981 31.1483 18.2989 30.7417 16.3662 30.0975C15.3978 29.7747 14.646 29.4003 14.1465 29.0067C13.6423 28.6092 13.4552 28.2441 13.4551 27.9374C13.4551 27.8016 13.4928 27.6542 13.5771 27.4979C13.8788 29.0346 18.2867 30.2594 23.7305 30.2987L24 30.2997C29.5669 30.2997 34.1137 29.0598 34.4209 27.4979ZM24 24.7284C24.6102 24.7284 25.2076 24.7464 25.7871 24.7753C28.0661 24.9012 30.0935 25.2629 31.6338 25.7762C32.531 26.0753 33.2414 26.4202 33.7383 26.7821C33.9291 26.9816 34.0077 27.1656 34.0078 27.33C34.0077 27.5785 33.8305 27.874 33.3516 28.1962C33.1585 28.326 32.9252 28.4522 32.6553 28.5751C32.9073 28.3729 33.0438 28.1596 33.0439 27.9374C33.0436 26.7225 28.9947 25.7372 24 25.7372C19.0053 25.7372 14.9554 26.7225 14.9551 27.9374C14.9553 28.159 15.0911 28.3724 15.3418 28.5741C15.0731 28.4517 14.8408 28.3255 14.6484 28.1962C14.1698 27.8742 13.9923 27.5785 13.9922 27.33C13.9923 27.1658 14.0704 26.9814 14.2607 26.7821C14.7577 26.42 15.4686 26.0755 16.3662 25.7762C17.9063 25.2629 19.9332 24.9013 22.2119 24.7753C22.7917 24.7464 23.3894 24.7284 24 24.7284ZM34.6172 26.9784C34.641 27.0077 34.6639 27.0367 34.6855 27.0663C34.6639 27.0368 34.641 27.0076 34.6172 26.9784ZM13.3789 26.9833C13.3676 26.9972 13.3555 27.0103 13.3447 27.0243C13.3555 27.0103 13.3676 26.9972 13.3789 26.9833ZM34.333 26.6766C34.3502 26.6923 34.3653 26.7097 34.3818 26.7255C34.3581 26.7029 34.3346 26.6795 34.3096 26.6571L34.333 26.6766ZM14.1523 26.3026C14.3185 26.1916 14.5014 26.0846 14.6992 25.9803C14.5014 26.0845 14.3185 26.1917 14.1523 26.3026ZM33.8545 26.3075C33.6869 26.1952 33.5028 26.0857 33.3027 25.9803C33.4327 26.0488 33.5565 26.1179 33.6729 26.1893L33.8545 26.3075ZM32.0322 25.4325C32.0892 25.4528 32.1455 25.4733 32.2012 25.494C32.1479 25.4748 32.0939 25.4542 32.0391 25.4354C32.0367 25.4346 32.0346 25.4333 32.0322 25.4325ZM22.6094 24.3007C22.1133 24.3215 21.6275 24.3522 21.1543 24.3944C21.6275 24.3523 22.1133 24.3215 22.6094 24.3007ZM14.0098 26.4022C14.056 26.3689 14.1033 26.3354 14.1523 26.3026C14.1033 26.3354 14.056 26.3689 14.0098 26.4022ZM31.6738 25.3114C31.796 25.3511 31.9157 25.391 32.0322 25.4325C31.9157 25.391 31.796 25.3511 31.6738 25.3114Z" fill="black"/>
<path d="M28.6301 28.8977C28.7297 28.9836 28.8795 28.9745 28.9679 28.877C29.0564 28.7796 29.0514 28.6292 28.9567 28.5378L17.2487 17.2433C17.0298 17.0321 16.6803 17.0437 16.4759 17.2689L16.2689 17.4971C16.0645 17.7222 16.0858 18.0722 16.316 18.2709L28.6301 28.8977Z" fill="black"/>
<path d="M29.3052 29.024C29.4267 28.8212 29.4179 28.5639 29.2834 28.3695L29.2059 28.2776L17.4979 16.984C17.1331 16.6321 16.5502 16.6507 16.2096 17.026L16.0028 17.2538C15.6622 17.629 15.6979 18.2134 16.0815 18.5445L28.3953 29.1707L28.4932 29.2401C28.7328 29.3754 29.0417 29.3316 29.2338 29.1201L29.3052 29.024ZM28.9676 28.8772C28.8791 28.9745 28.7292 28.9839 28.6296 28.898L16.3158 18.2704L16.2395 18.1903C16.106 18.0161 16.0916 17.7762 16.2029 17.587L16.269 17.4967L16.4758 17.2689L16.5592 17.1943C16.7366 17.0658 16.9757 17.0582 17.161 17.175L17.2484 17.2429L28.9565 28.5379C29.0512 28.6292 29.0561 28.7798 28.9676 28.8772Z" fill="#FFFFDF"/>
<path d="M18.5351 23.4522C18.4052 23.4729 18.2828 23.3866 18.2585 23.2574C18.2341 23.1282 18.3166 23.0026 18.4449 22.9736L31.9128 19.9312C32.2104 19.864 32.5037 20.0566 32.5602 20.3564L32.6157 20.6511C32.6722 20.9509 32.4695 21.2388 32.1682 21.2866L18.5351 23.4522Z" fill="black"/>
<path d="M17.894 23.2059C17.8968 22.9703 18.0379 22.7555 18.2532 22.6596L18.3675 22.6227L31.8347 19.5802C32.3307 19.4682 32.8201 19.789 32.9143 20.2886L32.9698 20.5832C33.0639 21.0829 32.7255 21.5628 32.2234 21.6425L18.5908 23.8079L18.4709 23.815C18.1966 23.8039 17.9574 23.6053 17.9046 23.3252L17.894 23.2059ZM18.2585 23.2572C18.2828 23.3863 18.4051 23.4731 18.5348 23.4527L32.1684 21.2872C32.4319 21.2453 32.6198 21.0193 32.625 20.7629L32.6159 20.6512L32.5604 20.3566L32.5283 20.2494C32.4442 20.0464 32.2433 19.9142 32.0236 19.9178L31.9128 19.9312L18.4446 22.9738C18.3166 23.0029 18.2344 23.1282 18.2585 23.2572Z" fill="#FFFFDF"/>
</g>
</svg>
