<svg width="209" height="36" viewBox="0 0 209 36" fill="none" xmlns="http://www.w3.org/2000/svg">
<rect x="18" width="25.4558" height="25.4558" transform="rotate(45 18 0)" fill="#FFFFDF"/>
<path d="M109.319 29.1167C103.411 29.1167 98.7026 24.4372 98.7026 18.5C98.7026 12.5628 103.411 7.8833 109.319 7.8833C115.257 7.8833 119.936 12.5628 119.936 18.5C119.936 24.4372 115.257 29.1167 109.319 29.1167ZM109.319 25.841C113.414 25.841 116.573 22.7116 116.573 18.5C116.573 14.2884 113.414 11.159 109.319 11.159C105.225 11.159 102.066 14.2884 102.066 18.5C102.066 22.7116 105.225 25.841 109.319 25.841Z" fill="#FFFFDF"/>
<path d="M88.2713 29.1167C82.0417 29.1167 77.5669 24.4372 77.5669 18.5C77.5669 12.5628 82.0417 7.8833 88.2713 7.8833C92.015 7.8833 95.3492 9.78437 97.0747 12.7676L94.15 14.4639C93.0679 12.4459 90.8451 11.159 88.2713 11.159C83.855 11.159 80.9303 14.2884 80.9303 18.5C80.9303 22.7116 83.855 25.841 88.2713 25.841C90.8451 25.841 93.0971 24.5542 94.15 22.5361L97.0747 24.2032C95.3784 27.1864 92.0442 29.1167 88.2713 29.1167Z" fill="#FFFFDF"/>
<path d="M73.5337 28.7365L72.1005 24.6127H63.3849L61.9518 28.7365H58.2959L65.7247 8.26355H69.7608L77.1603 28.7365H73.5337ZM64.4963 21.454H70.9892L67.7427 12.2119L64.4963 21.454Z" fill="#FFFFDF"/>
<path d="M52.7411 8.26355H56.1045V28.7365H52.7411V19.8747H43.9669V28.7365H40.6035V8.26355H43.9669V16.6575H52.7411V8.26355Z" fill="#FFFFDF"/>
<path d="M127.085 28.9231C125.515 28.9231 124.242 28.5078 123.267 27.6774C122.31 26.8288 121.832 25.6824 121.832 24.2381C121.832 22.8841 122.229 21.7286 123.023 20.7718C123.836 19.8149 124.901 19.0386 126.219 18.4429C126.02 17.9012 125.849 17.3687 125.704 16.8451C125.578 16.3215 125.515 15.798 125.515 15.2744C125.515 14.3717 125.713 13.6135 126.11 12.9996C126.507 12.3678 127.022 11.8893 127.654 11.5644C128.286 11.2394 128.954 11.0769 129.658 11.0769C130.326 11.0769 130.931 11.2123 131.472 11.4831C132.032 11.7539 132.483 12.1421 132.826 12.6476C133.169 13.1531 133.341 13.7579 133.341 14.462C133.341 15.2022 133.142 15.8702 132.745 16.466C132.366 17.0437 131.842 17.5672 131.174 18.0366C130.524 18.488 129.793 18.8942 128.981 19.2553C129.45 20.0677 130.001 20.9072 130.633 21.7738C131.265 22.6223 131.906 23.3625 132.555 23.9944C133.043 23.5611 133.44 23.1098 133.747 22.6404C134.054 22.171 134.207 21.6925 134.207 21.2051C134.207 20.844 134.117 20.6093 133.937 20.501C133.774 20.3746 133.603 20.2843 133.422 20.2302C133.205 20.158 133.034 20.0857 132.908 20.0135C132.799 19.9233 132.745 19.7788 132.745 19.5802C132.745 19.2553 132.853 18.9122 133.07 18.5512C133.287 18.172 133.567 17.8471 133.91 17.5763C134.253 17.3055 134.623 17.1701 135.02 17.1701C135.381 17.1701 135.706 17.3416 135.995 17.6846C136.284 18.0096 136.428 18.6324 136.428 19.5532C136.428 20.4739 136.238 21.4037 135.859 22.3425C135.498 23.2813 134.912 24.211 134.099 25.1318C134.568 25.4387 135.02 25.5921 135.453 25.5921C135.778 25.5921 136.022 25.538 136.184 25.4297C136.347 25.3213 136.491 25.204 136.618 25.0776C136.708 24.9873 136.798 24.9151 136.888 24.861C136.979 24.8068 137.087 24.7797 137.213 24.7797C137.701 24.7797 137.945 25.1498 137.945 25.89C137.945 26.3053 137.836 26.7476 137.62 27.217C137.421 27.6683 137.105 28.0475 136.672 28.3544C136.238 28.6613 135.67 28.8148 134.966 28.8148C134.334 28.8148 133.765 28.6793 133.26 28.4085C132.772 28.1377 132.294 27.7676 131.824 27.2982C131.102 27.8218 130.353 28.228 129.577 28.5169C128.818 28.7877 127.988 28.9231 127.085 28.9231ZM128.168 17.6575C128.927 17.2964 129.541 16.9083 130.01 16.493C130.497 16.0778 130.741 15.6265 130.741 15.139C130.741 14.7779 130.615 14.48 130.362 14.2453C130.109 13.9926 129.748 13.8662 129.279 13.8662C128.791 13.8662 128.403 14.0287 128.114 14.3537C127.825 14.6606 127.681 15.0848 127.681 15.6265C127.681 15.8792 127.717 16.1861 127.789 16.5472C127.88 16.9083 128.006 17.2784 128.168 17.6575ZM127.491 26.0525C127.907 26.0525 128.349 26.0074 128.818 25.9171C129.306 25.8268 129.757 25.6914 130.172 25.5109C129.829 25.0596 129.441 24.4999 129.008 23.8319C128.593 23.1639 128.196 22.4869 127.816 21.8009C127.455 21.1148 127.166 20.5371 126.95 20.0677C126.101 20.4649 125.433 20.9614 124.946 21.5571C124.476 22.1348 124.242 22.7667 124.242 23.4528C124.242 24.2291 124.54 24.861 125.135 25.3484C125.731 25.8178 126.517 26.0525 127.491 26.0525Z" fill="#FFFFDF"/>
<path d="M200.83 28.9266C196.326 28.9266 193.079 26.1773 193.079 21.761V8.07336H196.443V21.5563C196.443 23.9546 197.817 25.6509 200.83 25.6509C203.842 25.6509 205.217 23.9546 205.217 21.5563V8.07336H208.58V21.761C208.58 26.1773 205.304 28.9266 200.83 28.9266Z" fill="#FFFFDF"/>
<path d="M186.777 17.9297C188.502 18.8363 189.643 20.5034 189.643 22.6969C189.643 26.0896 186.894 28.5464 183.501 28.5464H174.727V8.07336H182.858C186.163 8.07336 188.853 10.4716 188.853 13.7473C188.853 15.5314 188.064 16.9937 186.777 17.9297ZM182.858 11.2321H178.09V16.6135H182.858C184.349 16.6135 185.49 15.4436 185.49 13.9228C185.49 12.4019 184.349 11.2321 182.858 11.2321ZM183.501 25.3877C185.081 25.3877 186.28 24.13 186.28 22.5215C186.28 20.9129 185.081 19.6552 183.501 19.6552H178.09V25.3877H183.501Z" fill="#FFFFDF"/>
<path d="M161.704 25.3292H170.77V28.5464H158.34V8.07336H170.624V11.2905H161.704V16.6135H169.893V19.8015H161.704V25.3292Z" fill="#FFFFDF"/>
<path d="M155.283 28.5464H151.276L143.204 18.8071V28.5464H139.841V8.07336H143.204V17.257L150.984 8.07336H154.991L146.714 18.0466L155.283 28.5464Z" fill="#FFFFDF"/>
</svg>
