<svg width="219" height="36" viewBox="0 0 219 36" fill="none" xmlns="http://www.w3.org/2000/svg">
<rect x="18" width="25.4558" height="25.4558" transform="rotate(45 18 0)" fill="#FFFFDF"/>
<mask id="mask0_1107_2943" style="mask-type:alpha" maskUnits="userSpaceOnUse" x="0" y="0" width="36" height="36">
<rect x="18" width="25.4558" height="25.4558" transform="rotate(45 18 0)" fill="#FFFFDF"/>
</mask>
<g mask="url(#mask0_1107_2943)">
<path d="M7.19727 22.6259C8.14853 24.291 12.4756 25.5581 17.7158 25.6024L18 25.6034C23.3605 25.6034 27.8226 24.3236 28.7988 22.6317L23.9404 36.6923H12.0596L7.19727 22.6259ZM28.4209 21.4979C28.5056 21.6545 28.5449 21.8013 28.5449 21.9374C28.5448 22.2442 28.358 22.6091 27.8535 23.0067C27.3539 23.4003 26.6023 23.7747 25.6338 24.0975C23.701 24.7417 21.0019 25.1483 18 25.1483C14.9981 25.1483 12.2989 24.7417 10.3662 24.0975C9.39779 23.7747 8.646 23.4003 8.14648 23.0067C7.64227 22.6092 7.45525 22.2441 7.45508 21.9374C7.45512 21.8016 7.49276 21.6542 7.57715 21.4979C7.87881 23.0346 12.2867 24.2594 17.7305 24.2987L18 24.2997C23.5669 24.2997 28.1137 23.0598 28.4209 21.4979ZM18 18.7284C18.6102 18.7284 19.2076 18.7464 19.7871 18.7753C22.0661 18.9012 24.0935 19.2629 25.6338 19.7762C26.531 20.0753 27.2414 20.4202 27.7383 20.7821C27.9291 20.9816 28.0077 21.1656 28.0078 21.33C28.0077 21.5785 27.8305 21.874 27.3516 22.1962C27.1585 22.326 26.9252 22.4522 26.6553 22.5751C26.9073 22.3729 27.0438 22.1596 27.0439 21.9374C27.0436 20.7225 22.9947 19.7372 18 19.7372C13.0053 19.7372 8.95544 20.7225 8.95508 21.9374C8.95527 22.159 9.0911 22.3724 9.3418 22.5741C9.07309 22.4517 8.84076 22.3255 8.64844 22.1962C8.16981 21.8742 7.99227 21.5785 7.99219 21.33C7.99225 21.1658 8.07037 20.9814 8.26074 20.7821C8.75766 20.42 9.4686 20.0755 10.3662 19.7762C11.9063 19.2629 13.9332 18.9013 16.2119 18.7753C16.7917 18.7464 17.3894 18.7284 18 18.7284ZM28.6172 20.9784C28.641 21.0077 28.6639 21.0367 28.6855 21.0663C28.6639 21.0368 28.641 21.0076 28.6172 20.9784ZM7.37891 20.9833C7.36764 20.9972 7.35551 21.0103 7.34473 21.0243C7.3555 21.0103 7.36765 20.9972 7.37891 20.9833ZM28.333 20.6766C28.3502 20.6923 28.3653 20.7097 28.3818 20.7255C28.3581 20.7029 28.3346 20.6795 28.3096 20.6571L28.333 20.6766ZM8.15234 20.3026C8.31849 20.1916 8.50136 20.0846 8.69922 19.9803C8.50139 20.0845 8.3185 20.1917 8.15234 20.3026ZM27.8545 20.3075C27.6869 20.1952 27.5028 20.0857 27.3027 19.9803C27.4327 20.0488 27.5565 20.1179 27.6729 20.1893L27.8545 20.3075ZM26.0322 19.4325C26.0892 19.4528 26.1455 19.4733 26.2012 19.494C26.1479 19.4748 26.0939 19.4542 26.0391 19.4354C26.0367 19.4346 26.0346 19.4333 26.0322 19.4325ZM16.6094 18.3007C16.1133 18.3215 15.6275 18.3522 15.1543 18.3944C15.6275 18.3523 16.1133 18.3215 16.6094 18.3007ZM8.00977 20.4022C8.05596 20.3689 8.10327 20.3354 8.15234 20.3026C8.10327 20.3354 8.05596 20.3689 8.00977 20.4022ZM25.6738 19.3114C25.796 19.3511 25.9157 19.391 26.0322 19.4325C25.9157 19.391 25.796 19.3511 25.6738 19.3114Z" fill="url(#paint0_linear_1107_2943)"/>
<path d="M22.6301 22.8977C22.7297 22.9836 22.8795 22.9745 22.9679 22.877C23.0564 22.7796 23.0514 22.6292 22.9567 22.5378L11.2487 11.2433C11.0298 11.0321 10.6803 11.0437 10.4759 11.2689L10.2689 11.4971C10.0645 11.7222 10.0858 12.0722 10.316 12.2709L22.6301 22.8977Z" fill="black"/>
<path d="M23.3052 23.024C23.4267 22.8212 23.4179 22.5639 23.2834 22.3695L23.2059 22.2776L11.4979 10.984C11.1331 10.6321 10.5502 10.6507 10.2096 11.026L10.0028 11.2538C9.66221 11.629 9.69787 12.2134 10.0815 12.5445L22.3953 23.1707L22.4932 23.2401C22.7328 23.3754 23.0417 23.3316 23.2338 23.1201L23.3052 23.024ZM22.9676 22.8772C22.8791 22.9745 22.7292 22.9839 22.6296 22.898L10.3158 12.2704L10.2395 12.1903C10.106 12.0161 10.0916 11.7762 10.2029 11.587L10.269 11.4967L10.4758 11.2689L10.5592 11.1943C10.7366 11.0658 10.9757 11.0582 11.161 11.175L11.2484 11.2429L22.9565 22.5379C23.0512 22.6292 23.0561 22.7798 22.9676 22.8772Z" fill="#FFFFDF"/>
<path d="M12.5351 17.4522C12.4052 17.4729 12.2828 17.3866 12.2585 17.2574C12.2341 17.1282 12.3166 17.0026 12.4449 16.9736L25.9128 13.9312C26.2104 13.864 26.5037 14.0566 26.5602 14.3564L26.6157 14.6511C26.6722 14.9509 26.4695 15.2388 26.1682 15.2866L12.5351 17.4522Z" fill="black"/>
<path d="M11.894 17.2059C11.8968 16.9703 12.0379 16.7555 12.2532 16.6596L12.3675 16.6227L25.8347 13.5802C26.3307 13.4682 26.8201 13.789 26.9143 14.2886L26.9698 14.5832C27.0639 15.0829 26.7255 15.5628 26.2234 15.6425L12.5908 17.8079L12.4709 17.815C12.1966 17.8039 11.9574 17.6053 11.9046 17.3252L11.894 17.2059ZM12.2585 17.2572C12.2828 17.3863 12.4051 17.4731 12.5348 17.4527L26.1684 15.2872C26.4319 15.2453 26.6198 15.0193 26.625 14.7629L26.6159 14.6512L26.5604 14.3566L26.5283 14.2494C26.4442 14.0464 26.2433 13.9142 26.0236 13.9178L25.9128 13.9312L12.4446 16.9738C12.3166 17.0029 12.2344 17.1282 12.2585 17.2572Z" fill="#FFFFDF"/>
</g>
<path d="M112.716 29.1167C106.808 29.1167 102.099 24.4372 102.099 18.5C102.099 12.5628 106.808 7.8833 112.716 7.8833C118.653 7.8833 123.333 12.5628 123.333 18.5C123.333 24.4372 118.653 29.1167 112.716 29.1167ZM112.716 25.841C116.81 25.841 119.969 22.7116 119.969 18.5C119.969 14.2884 116.81 11.159 112.716 11.159C108.621 11.159 105.463 14.2884 105.463 18.5C105.463 22.7116 108.621 25.841 112.716 25.841Z" fill="#FFFFDF"/>
<path d="M91.6678 29.1167C85.4382 29.1167 80.9634 24.4372 80.9634 18.5C80.9634 12.5628 85.4382 7.8833 91.6678 7.8833C95.4115 7.8833 98.7456 9.78437 100.471 12.7676L97.5465 14.4639C96.4644 12.4459 94.2416 11.159 91.6678 11.159C87.2515 11.159 84.3268 14.2884 84.3268 18.5C84.3268 22.7116 87.2515 25.841 91.6678 25.841C94.2416 25.841 96.4936 24.5542 97.5465 22.5361L100.471 24.2032C98.7749 27.1864 95.4407 29.1167 91.6678 29.1167Z" fill="#FFFFDF"/>
<path d="M76.9301 28.7365L75.497 24.6127H66.7814L65.3483 28.7365H61.6924L69.1212 8.26355H73.1573L80.5568 28.7365H76.9301ZM67.8928 21.454H74.3856L71.1392 12.2119L67.8928 21.454Z" fill="#FFFFDF"/>
<path d="M56.1376 8.26355H59.501V28.7365H56.1376V19.8747H47.3634V28.7365H44V8.26355H47.3634V16.6575H56.1376V8.26355Z" fill="#FFFFDF"/>
<path d="M133.586 28.9231C132.015 28.9231 130.743 28.5078 129.768 27.6774C128.811 26.8288 128.333 25.6824 128.333 24.2381C128.333 22.8841 128.73 21.7286 129.524 20.7718C130.336 19.8149 131.402 19.0386 132.72 18.4429C132.521 17.9012 132.349 17.3687 132.205 16.8451C132.079 16.3215 132.015 15.798 132.015 15.2744C132.015 14.3717 132.214 13.6135 132.611 12.9996C133.008 12.3678 133.523 11.8893 134.155 11.5644C134.787 11.2394 135.455 11.0769 136.159 11.0769C136.827 11.0769 137.432 11.2123 137.973 11.4831C138.533 11.7539 138.984 12.1421 139.327 12.6476C139.67 13.1531 139.842 13.7579 139.842 14.462C139.842 15.2022 139.643 15.8702 139.246 16.466C138.867 17.0437 138.343 17.5672 137.675 18.0366C137.025 18.488 136.294 18.8942 135.482 19.2553C135.951 20.0677 136.502 20.9072 137.134 21.7738C137.766 22.6223 138.407 23.3625 139.056 23.9944C139.544 23.5611 139.941 23.1098 140.248 22.6404C140.555 22.171 140.708 21.6925 140.708 21.2051C140.708 20.844 140.618 20.6093 140.438 20.501C140.275 20.3746 140.104 20.2843 139.923 20.2302C139.706 20.158 139.535 20.0857 139.409 20.0135C139.3 19.9233 139.246 19.7788 139.246 19.5802C139.246 19.2553 139.354 18.9122 139.571 18.5512C139.788 18.172 140.067 17.8471 140.411 17.5763C140.754 17.3055 141.124 17.1701 141.521 17.1701C141.882 17.1701 142.207 17.3416 142.496 17.6846C142.785 18.0096 142.929 18.6324 142.929 19.5532C142.929 20.4739 142.739 21.4037 142.36 22.3425C141.999 23.2813 141.412 24.211 140.6 25.1318C141.069 25.4387 141.521 25.5921 141.954 25.5921C142.279 25.5921 142.523 25.538 142.685 25.4297C142.848 25.3213 142.992 25.204 143.119 25.0776C143.209 24.9873 143.299 24.9151 143.389 24.861C143.48 24.8068 143.588 24.7797 143.714 24.7797C144.202 24.7797 144.446 25.1498 144.446 25.89C144.446 26.3053 144.337 26.7476 144.121 27.217C143.922 27.6683 143.606 28.0475 143.173 28.3544C142.739 28.6613 142.171 28.8148 141.467 28.8148C140.835 28.8148 140.266 28.6793 139.761 28.4085C139.273 28.1377 138.795 27.7676 138.325 27.2982C137.603 27.8218 136.854 28.228 136.078 28.5169C135.319 28.7877 134.489 28.9231 133.586 28.9231ZM134.669 17.6575C135.428 17.2964 136.041 16.9083 136.511 16.493C136.998 16.0778 137.242 15.6265 137.242 15.139C137.242 14.7779 137.116 14.48 136.863 14.2453C136.61 13.9926 136.249 13.8662 135.78 13.8662C135.292 13.8662 134.904 14.0287 134.615 14.3537C134.326 14.6606 134.182 15.0848 134.182 15.6265C134.182 15.8792 134.218 16.1861 134.29 16.5472C134.381 16.9083 134.507 17.2784 134.669 17.6575ZM133.992 26.0525C134.408 26.0525 134.85 26.0074 135.319 25.9171C135.807 25.8268 136.258 25.6914 136.673 25.5109C136.33 25.0596 135.942 24.4999 135.509 23.8319C135.094 23.1639 134.696 22.4869 134.317 21.8009C133.956 21.1148 133.667 20.5371 133.451 20.0677C132.602 20.4649 131.934 20.9614 131.447 21.5571C130.977 22.1348 130.743 22.7667 130.743 23.4528C130.743 24.2291 131.041 24.861 131.636 25.3484C132.232 25.8178 133.017 26.0525 133.992 26.0525Z" fill="#FFFFDF"/>
<path d="M210.435 28.9266C205.931 28.9266 202.684 26.1773 202.684 21.761V8.07336H206.048V21.5563C206.048 23.9546 207.422 25.6509 210.435 25.6509C213.447 25.6509 214.822 23.9546 214.822 21.5563V8.07336H218.185V21.761C218.185 26.1773 214.909 28.9266 210.435 28.9266Z" fill="#FFFFDF"/>
<path d="M196.382 17.9297C198.107 18.8363 199.248 20.5034 199.248 22.6969C199.248 26.0896 196.499 28.5464 193.106 28.5464H184.332V8.07336H192.463C195.768 8.07336 198.458 10.4716 198.458 13.7473C198.458 15.5314 197.669 16.9937 196.382 17.9297ZM192.463 11.2321H187.695V16.6135H192.463C193.954 16.6135 195.095 15.4436 195.095 13.9228C195.095 12.4019 193.954 11.2321 192.463 11.2321ZM193.106 25.3877C194.686 25.3877 195.885 24.13 195.885 22.5215C195.885 20.9129 194.686 19.6552 193.106 19.6552H187.695V25.3877H193.106Z" fill="#FFFFDF"/>
<path d="M171.309 25.3292H180.375V28.5464H167.945V8.07336H180.229V11.2905H171.309V16.6135H179.498V19.8015H171.309V25.3292Z" fill="#FFFFDF"/>
<path d="M164.888 28.5464H160.881L152.809 18.8071V28.5464H149.445V8.07336H152.809V17.257L160.588 8.07336H164.595L156.318 18.0466L164.888 28.5464Z" fill="#FFFFDF"/>
<defs>
<linearGradient id="paint0_linear_1107_2943" x1="17.998" y1="23.5" x2="17.998" y2="36.6923" gradientUnits="userSpaceOnUse">
<stop/>
<stop offset="1" stop-color="#303020"/>
</linearGradient>
</defs>
</svg>
